# xmcd
#
# Track frame offsets:
#	182
#	20392
#	39382
#	60382
#	86745
#	106337
#	125687
#	143880
#	161560
#
# Disc length: 2426 seconds
#
# Revision: 12
# Processed by: cddbd v1.5.2PL0 Copyright (c) Steve Scherf et al.
# Submitted via: audiograbber 1.83.01
#
DISCID=71097809
DTITLE=Madonna (True Blue) - True Blue
DYEAR=1986
DGENRE=Pop
TTITLE0=Papa don't preach
TTITLE1=Open your heart
TTITLE2=White heat
TTITLE3=Live to tell
TTITLE4=Where's the party
TTITLE5=True blue
TTITLE6=La isla bonita
TTITLE7=Jimmy Jimmy
TTITLE8=Love makes the world go round
EXTD=MADONNA - TRUE BLUE\n\nWEA - Sire\n7599-25442-2
EXTT0=
EXTT1=
EXTT2=
EXTT3=
EXTT4=
EXTT5=
EXTT6=
EXTT7=
EXTT8=
PLAYORDER=
